<?xml version="1.0" encoding="utf-8"?>
<!-- Generator: Adobe Illustrator 21.0.2, SVG Export Plug-In . SVG Version: 6.00 Build 0)  -->
<svg version="1.1" id="Layer_1" xmlns="http://www.w3.org/2000/svg" xmlns:xlink="http://www.w3.org/1999/xlink" x="0px" y="0px"
	 viewBox="0 0 491.1 45.1" style="enable-background:new 0 0 491.1 45.1;" xml:space="preserve">
<style type="text/css">
	.st0{fill:#010101;}
	.st1{fill:#EC008C;}
</style>
<g>
	<g>
		<path class="st0" d="M25.9,25.6c-2.3-1.8-5.8-3.4-10.4-4.7c-4.6-1.2-7.8-2.6-9.5-4.2c-1.7-1.5-2.5-3.4-2.5-5.7
			c0-2.3,1-4.3,3.1-5.9c2.1-1.7,4.9-2.5,8.5-2.5c3.4,0,6.3,1,8.4,3c2.1,2,3.2,4.6,3.2,7.6v0.5h2.1l0.2-0.5l0-0.1
			c0.1-3.8-1.2-6.9-3.8-9.4c-2.6-2.4-6-3.6-10-3.6c-4,0-7.4,1-10,3c-2.6,2-4,4.7-4,8c0,3.4,1.1,6,3.4,7.7c2.2,1.7,5.7,3.3,10.4,4.6
			c4.5,1.3,7.8,2.8,9.6,4.3c1.8,1.5,2.7,3.6,2.7,6.1c0,2.6-1.1,4.7-3.3,6.4c-2.2,1.7-5.1,2.5-8.6,2.5c-3.5,0-6.5-0.9-9.2-2.6
			c-2.6-1.7-3.9-4.4-3.9-8.1v-0.5h-2L0,32l0,0.1c-0.1,4.5,1.4,7.8,4.5,9.9c3,2.1,6.6,3.1,10.8,3.1c4,0,7.5-1,10.1-3
			c2.7-2,4.1-4.9,4.1-8.4C29.6,30.2,28.3,27.5,25.9,25.6z"/>
		<polygon class="st0" points="49.1,24.7 48.8,25.4 48.4,24.7 34.9,0.6 32,0.6 47.6,27.8 47.6,44.5 50,44.5 50,27.8 65.7,0.6 
			62.8,0.6 		"/>
		<polygon class="st0" points="90.5,40.5 74,0.6 71.1,0.6 71.1,44.5 73.5,44.5 73.5,5.9 89.6,44.5 91.4,44.5 107.5,5.7 107.5,44.5 
			110,44.5 110,0.6 107,0.6 		"/>
		<path class="st0" d="M133.4,0.6h-13.2v43.9h2.4V26.1h10.8c4.3,0,7.7-1.2,10.1-3.5c2.3-2.3,3.5-5.4,3.5-9.3c0-3.8-1.2-6.9-3.6-9.2
			C141.1,1.8,137.7,0.6,133.4,0.6z M133.4,23.6h-10.8V3.1h10.8c3.7,0,6.6,1,8.4,2.9c1.8,1.9,2.8,4.4,2.8,7.4c0,2.9-0.9,5.3-2.8,7.3
			C140,22.6,137.1,23.6,133.4,23.6z"/>
		<polygon class="st0" points="182.2,21.5 157.1,21.5 157.1,0.6 154.7,0.6 154.7,44.5 157.1,44.5 157.1,24 182.2,24 182.2,44.5 
			184.6,44.5 184.6,0.6 182.2,0.6 		"/>
		<path class="st0" d="M208.8,0c-4.9,0-8.8,1.8-11.6,5.3c-2.8,3.5-4.2,8.2-4.2,14.1v6.4c0,5.9,1.4,10.6,4.2,14.1
			c2.8,3.5,6.7,5.3,11.6,5.3c4.9,0,8.8-1.8,11.6-5.3c2.8-3.5,4.2-8.2,4.2-14.1v-6.4c0-5.9-1.4-10.6-4.2-14.1
			C217.6,1.8,213.7,0,208.8,0z M208.9,42.6c-4.3,0-7.6-1.5-9.9-4.5c-2.3-3-3.5-7.2-3.5-12.4v-6.5c0-5.1,1.2-9.3,3.5-12.3
			c2.3-3,5.6-4.5,9.9-4.5c4.3,0,7.6,1.5,9.9,4.5c2.3,3,3.5,7.1,3.5,12.3v6.5c0,5.2-1.2,9.4-3.5,12.4
			C216.5,41.1,213.1,42.6,208.9,42.6z"/>
		<polygon class="st0" points="260.9,39.7 235.3,0.6 233.1,0.6 233.1,44.5 235.5,44.5 235.5,5.3 261.1,44.5 263.3,44.5 263.3,0.6 
			260.9,0.6 		"/>
		<polygon class="st0" points="298.7,0.6 285.1,24.7 284.7,25.4 284.4,24.7 270.8,0.6 267.9,0.6 283.5,27.8 283.5,44.5 286,44.5 
			286,27.8 301.6,0.6 		"/>
	</g>
	<g>
		<polygon class="st0" points="343.8,0.6 316.4,0.6 316.4,6.1 326.8,6.1 326.8,44.5 333.4,44.5 333.4,6.1 343.8,6.1 		"/>
		<polygon class="st0" points="384,0.6 377.4,0.6 377.4,44.5 399.9,44.5 399.9,39 384,39 		"/>
		<polygon class="st0" points="410.6,24.5 425.7,24.5 425.7,19.1 410.6,19.1 410.6,6.1 428,6.1 428,0.6 404,0.6 404,44.5 
			428.1,44.5 428.1,39 410.6,39 		"/>
		<polygon class="st0" points="453.8,31.3 438.9,0.6 432.5,0.6 432.5,44.5 439.1,44.5 439.1,13.7 454,44.5 460.4,44.5 460.4,0.6 
			453.8,0.6 		"/>
		<polygon class="st0" points="463.6,0.6 463.6,6.1 474,6.1 474,44.5 480.6,44.5 480.6,6.1 491.1,6.1 491.1,0.6 		"/>
		<polygon class="st1" points="353.5,0.6 340.7,44.5 347.4,44.5 356.5,11.1 365.6,44.5 372.3,44.5 359.6,0.6 		"/>
	</g>
</g>
</svg>
